<svg width="12px" height="12px" viewBox="0 0 10 10" fill="#ffffff" xmlns="http://www.w3.org/2000/svg" class="label-image" data-v-4cce5460=""><path stroke-width="0.5" d="M9.65 4.04002C9.50951 3.87135 9.3337 3.73556 9.13499 3.64226C8.93629 3.54895 8.71952 3.5004 8.5 3.50002H6.22L6.5 2.78502C6.61647 2.47196 6.65525 2.13532 6.61303 1.80398C6.57081 1.47264 6.44884 1.15649 6.25759 0.882637C6.06634 0.608788 5.81151 0.385421 5.51497 0.231694C5.21843 0.0779672 4.88902 -0.00152971 4.555 2.22956e-05C4.45882 0.000222977 4.36474 0.0281599 4.28404 0.0804837C4.20333 0.132807 4.13943 0.207297 4.1 0.295022L2.675 3.50002H1.5C1.10218 3.50002 0.720644 3.65806 0.43934 3.93936C0.158035 4.22067 0 4.6022 0 5.00002V8.50002C0 8.89785 0.158035 9.27938 0.43934 9.56068C0.720644 9.84199 1.10218 10 1.5 10H7.865C8.2159 9.9999 8.55566 9.87677 8.82516 9.65203C9.09466 9.4273 9.27684 9.1152 9.34 8.77002L9.975 5.27002C10.0143 5.05371 10.0055 4.83141 9.94936 4.61886C9.8932 4.40631 9.791 4.2087 9.65 4.04002ZM2.5 9.00002H1.5C1.36739 9.00002 1.24021 8.94734 1.14645 8.85358C1.05268 8.75981 1 8.63263 1 8.50002V5.00002C1 4.86741 1.05268 4.74024 1.14645 4.64647C1.24021 4.5527 1.36739 4.50002 1.5 4.50002H2.5V9.00002ZM9 5.09002L8.365 8.59002C8.3437 8.7065 8.28176 8.81164 8.19019 8.88672C8.09863 8.9618 7.98339 9.00195 7.865 9.00002H3.5V4.10502L4.86 1.04502C4.99999 1.08584 5.13 1.15523 5.24183 1.24881C5.35365 1.3424 5.44486 1.45816 5.5097 1.58877C5.57454 1.71938 5.61159 1.86202 5.61853 2.00767C5.62546 2.15333 5.60213 2.29884 5.55 2.43502L5.285 3.15002C5.22853 3.30115 5.20947 3.4637 5.22944 3.62379C5.2494 3.78388 5.30781 3.93676 5.39967 4.06939C5.49152 4.20202 5.61411 4.31046 5.75695 4.38544C5.8998 4.46043 6.05867 4.49974 6.22 4.50002H8.5C8.57346 4.4999 8.64603 4.51597 8.71258 4.54708C8.77912 4.57819 8.83799 4.62358 8.885 4.68002C8.93317 4.73568 8.96845 4.80129 8.98833 4.87217C9.00821 4.94304 9.01219 5.01743 9 5.09002Z" data-v-4cce5460=""></path></svg>