<?xml version="1.0" encoding="utf-8"?>
<!-- Generator: Adobe Illustrator 24.3.0, SVG Export Plug-In . SVG Version: 6.00 Build 0)  -->
<svg version="1.1" id="Layer_1" xmlns="http://www.w3.org/2000/svg" xmlns:xlink="http://www.w3.org/1999/xlink" x="0px" y="0px"
	 viewBox="0 0 1500 1500" style="enable-background:new 0 0 1500 1500;" xml:space="preserve">
<style type="text/css">
	.st0{fill-rule:evenodd;clip-rule:evenodd;}
	.st1{fill:#E3CE76;}
	.st2{fill:#A28B42;}
	.st3{fill:#DEBE5A;}
</style>
<g>
	<polygon class="st0" points="0,0 1500,0 1500,1500 0,1500 0,0 	"/>
	<path class="st1" d="M680.61,1070.53l-159.22-91.92h-0.17L341,874.57V458.59l180.22-104.05h0.17l222.07-128.21v880.49
		L680.61,1070.53L680.61,1070.53z M563.19,906.14l96.24,55.57V371.44L563.19,427l0.04,0.07l-138.2,79.79v319.41l138.2,79.79
		L563.19,906.14L563.19,906.14z"/>
	<polygon class="st2" points="1159,859.48 1159,458.59 978.78,354.54 978.61,354.54 853.65,282.4 853.65,378.99 936.81,427.01 
		936.77,427.08 1074.97,506.87 1074.97,811.21 1159,859.48 	"/>
	<polygon class="st3" points="819.39,1070.53 978.61,978.61 978.78,978.61 1159,874.57 1074.97,826.27 1074.97,826.28 
		936.77,906.07 936.81,906.14 840.57,961.71 840.57,402.37 840.57,371.44 840.57,274.84 756.54,226.33 756.54,1106.82 
		819.39,1070.53 	"/>
	<path class="st1" d="M524.35,1273.66c27.5,0,40.1-13.53,40.1-29.36c0-39.17-66.23-21.35-66.23-50.86
		c0-10.75,8.77-19.51,28.43-19.51c9.52,0,20.28,2.92,29.51,8.91l3.83-9.07c-8.59-5.99-21.21-9.52-33.34-9.52
		c-27.35,0-39.64,13.67-39.64,29.5c0,39.8,66.23,21.67,66.23,51.18c0,10.59-8.77,19.06-28.9,19.06c-14.14,0-27.81-5.54-35.49-13.06
		l-4.46,8.75C492.39,1267.98,508.23,1273.66,524.35,1273.66L524.35,1273.66z M667.87,1165.17v47.94h-67.3v-47.94H589.2v107.56h11.36
		v-49.64h67.3v49.64h11.22v-107.56H667.87L667.87,1165.17z M761.15,1273.66c32.27,0,56.39-23.21,56.39-54.71
		c0-31.51-24.12-54.7-56.39-54.7c-32.58,0-56.55,23.35-56.55,54.7C704.6,1250.3,728.57,1273.66,761.15,1273.66L761.15,1273.66z
		 M761.15,1263.52c-25.98,0-45.34-18.9-45.34-44.56c0-25.66,19.36-44.57,45.34-44.57c25.81,0,45.02,18.91,45.02,44.57
		C806.18,1244.62,786.96,1263.52,761.15,1263.52L761.15,1263.52z M854.41,1262.9v-39.94h55.63v-9.68h-55.63v-38.26h62.4v-9.84
		h-73.76v107.56h76.06v-9.84H854.41L854.41,1262.9z M975.5,1273.66c27.51,0,40.1-13.53,40.1-29.36c0-39.17-66.23-21.35-66.23-50.86
		c0-10.75,8.76-19.51,28.43-19.51c9.52,0,20.28,2.92,29.51,8.91l3.83-9.07c-8.59-5.99-21.2-9.52-33.34-9.52
		c-27.34,0-39.64,13.67-39.64,29.5c0,39.8,66.23,21.67,66.23,51.18c0,10.59-8.76,19.06-28.9,19.06c-14.14,0-27.81-5.54-35.49-13.06
		l-4.46,8.75C943.54,1267.98,959.37,1273.66,975.5,1273.66L975.5,1273.66z"/>
</g>
</svg>
