<?xml version="1.0" encoding="utf-8"?>
<!-- Generator: Adobe Illustrator 24.3.0, SVG Export Plug-In . SVG Version: 6.00 Build 0)  -->
<svg version="1.1" id="Layer_1" xmlns="http://www.w3.org/2000/svg" xmlns:xlink="http://www.w3.org/1999/xlink" x="0px" y="0px"
	 viewBox="0 0 1171.55 1500" style="enable-background:new 0 0 1171.55 1500;" xml:space="preserve">
<style type="text/css">
	.st0{fill:#E3CE76;}
	.st1{fill:#A28B42;}
	.st2{fill:#DEBE5A;}
</style>
<path class="st0" d="M486.39,1209.07l-228.03-131.65h-0.24L0,928.4V332.64l258.11-149.02h0.24L576.41,0v1261.05L486.39,1209.07
	L486.39,1209.07z M318.23,973.63l137.83,79.58V207.82L318.23,287.4l0.06,0.1L120.35,401.79v457.46l197.94,114.28L318.23,973.63
	L318.23,973.63z"/>
<polygon class="st1" points="1171.55,906.8 1171.55,332.64 913.43,183.62 913.2,183.62 734.22,80.3 734.22,218.64 853.32,287.4 
	853.26,287.51 1051.2,401.79 1051.2,837.66 1171.55,906.8 "/>
<polygon class="st2" points="685.16,1209.07 913.2,1077.42 913.43,1077.42 1171.55,928.4 1051.2,859.24 1051.2,859.25 
	853.26,973.53 853.32,973.63 715.49,1053.22 715.49,252.12 715.49,207.82 715.49,69.48 595.14,0 595.14,1261.05 685.16,1209.07 "/>
<path class="st0" d="M262.6,1500c39.39,0,57.44-19.37,57.44-42.05c0-56.1-94.85-30.58-94.85-72.84c0-15.4,12.56-27.94,40.72-27.94
	c13.64,0,29.04,4.18,42.26,12.76l5.49-12.99c-12.31-8.59-30.37-13.64-47.75-13.64c-39.17,0-56.77,19.58-56.77,42.24
	c0,57,94.85,31.03,94.85,73.3c0,15.17-12.56,27.29-41.38,27.29c-20.25,0-39.83-7.94-50.83-18.71l-6.38,12.54
	C216.82,1491.85,239.5,1500,262.6,1500L262.6,1500z M468.15,1344.61v68.66h-96.39v-68.66h-16.28v154.06h16.28v-71.09h96.39v71.09
	h16.07v-154.06H468.15L468.15,1344.61z M601.75,1500c46.21,0,80.76-33.24,80.76-78.35c0-45.13-34.55-78.35-80.76-78.35
	c-46.67,0-80.99,33.45-80.99,78.35C520.76,1466.53,555.08,1500,601.75,1500L601.75,1500z M601.75,1485.47
	c-37.21,0-64.94-27.07-64.94-63.82c0-36.75,27.73-63.84,64.94-63.84c36.96,0,64.48,27.09,64.48,63.84
	C666.23,1458.4,638.71,1485.47,601.75,1485.47L601.75,1485.47z M735.31,1484.58v-57.21h79.68v-13.87h-79.68v-54.8h89.36v-14.09
	H719.03v154.06h108.93v-14.09H735.31L735.31,1484.58z M908.74,1500c39.39,0,57.44-19.37,57.44-42.05c0-56.1-94.85-30.58-94.85-72.84
	c0-15.4,12.55-27.94,40.72-27.94c13.64,0,29.04,4.18,42.26,12.76l5.49-12.99c-12.31-8.59-30.37-13.64-47.75-13.64
	c-39.16,0-56.77,19.58-56.77,42.24c0,57,94.85,31.03,94.85,73.3c0,15.17-12.55,27.29-41.39,27.29c-20.25,0-39.83-7.94-50.83-18.71
	l-6.38,12.54C862.96,1491.85,885.64,1500,908.74,1500L908.74,1500z"/>
</svg>
